<svg xmlns="http://www.w3.org/2000/svg" viewBox="0 0 727.52 727.52">
  <defs>
    <clipPath id="snap-logo">
      <polygon points="518.9 487.88 597.36 409.42 490.18 380.7 518.9 487.88"/>
      <path d="M121.03,420.93l73.82,19.78c22.09,5.92,39.34,23.17,45.25,45.25l16.26,60.68c6.38,23.79-15.4,45.57-39.19,39.19l-96.13-25.76,25.79,96.23c19.13,71.38,108.36,95.29,160.61,43.04l62.53-62.53c24.25-24.25,33.72-59.6,24.85-92.73l-14.37-53.64h0s-30.6-114.21-30.6-114.21c-5.92-22.09-23.17-39.34-45.25-45.25l-74.06-19.84c-24.85-6.66-44.25-26.07-50.91-50.91l-15.06-56.21c-6.38-23.79,15.4-45.57,39.19-39.19l502.72,134.7c41.74-51.72,18.83-130.87-45.67-151.38L116.42,2.27C46.83-12.98-15.35,51.07,3.37,120.94l66.74,249.08c6.66,24.85,26.07,44.25,50.91,50.91Z"/>
    </clipPath>
    <radialGradient id="m0" cx="50%" cy="50%" r="50%">
      <stop offset="0%" stop-color="hsl(208, 58%, 74%)"/>
      <stop offset="52%" stop-color="hsl(208, 58%, 74%)" stop-opacity="0"/>
    </radialGradient>
    <radialGradient id="m1" cx="50%" cy="50%" r="50%">
      <stop offset="0%" stop-color="hsl(268, 48%, 78%)"/>
      <stop offset="50%" stop-color="hsl(268, 48%, 78%)" stop-opacity="0"/>
    </radialGradient>
    <radialGradient id="m2" cx="50%" cy="50%" r="50%">
      <stop offset="0%" stop-color="hsl(192, 52%, 72%)"/>
      <stop offset="54%" stop-color="hsl(192, 52%, 72%)" stop-opacity="0"/>
    </radialGradient>
    <radialGradient id="m3" cx="50%" cy="50%" r="50%">
      <stop offset="0%" stop-color="hsl(232, 46%, 76%)"/>
      <stop offset="48%" stop-color="hsl(232, 46%, 76%)" stop-opacity="0"/>
    </radialGradient>
    <radialGradient id="m4" cx="50%" cy="50%" r="50%">
      <stop offset="0%" stop-color="hsl(285, 42%, 80%)"/>
      <stop offset="51%" stop-color="hsl(285, 42%, 80%)" stop-opacity="0"/>
    </radialGradient>
    <radialGradient id="m5" cx="50%" cy="50%" r="50%">
      <stop offset="0%" stop-color="hsl(200, 54%, 70%)"/>
      <stop offset="53%" stop-color="hsl(200, 54%, 70%)" stop-opacity="0"/>
    </radialGradient>
  </defs>
  <g clip-path="url(#snap-logo)">
    <rect width="727.52" height="727.52" fill="hsl(218, 46%, 87%)"/>
    <circle cx="174.6" cy="145.5" r="334.66" fill="url(#m0)"/>
    <circle cx="567.47" cy="189.16" r="305.56" fill="url(#m1)"/>
    <circle cx="349.21" cy="494.71" r="363.76" fill="url(#m2)"/>
    <circle cx="101.85" cy="523.81" r="276.46" fill="url(#m3)"/>
    <circle cx="625.67" cy="552.92" r="261.91" fill="url(#m4)"/>
    <circle cx="378.31" cy="305.56" r="291.01" fill="url(#m5)"/>
  </g>
</svg>
