<svg xmlns="http://www.w3.org/2000/svg" viewBox="0 0 727.52 727.52">
  <polygon points="518.9 487.88 597.36 409.42 490.18 380.7 518.9 487.88"/>
  <path d="M121.03,420.93l73.82,19.78c22.09,5.92,39.34,23.17,45.25,45.25l16.26,60.68c6.38,23.79-15.4,45.57-39.19,39.19l-96.13-25.76,25.79,96.23c19.13,71.38,108.36,95.29,160.61,43.04l62.53-62.53c24.25-24.25,33.72-59.6,24.85-92.73l-14.37-53.64h0s-30.6-114.21-30.6-114.21c-5.92-22.09-23.17-39.34-45.25-45.25l-74.06-19.84c-24.85-6.66-44.25-26.07-50.91-50.91l-15.06-56.21c-6.38-23.79,15.4-45.57,39.19-39.19l502.72,134.7c41.74-51.72,18.83-130.87-45.67-151.38L116.42,2.27C46.83-12.98-15.35,51.07,3.37,120.94l66.74,249.08c6.66,24.85,26.07,44.25,50.91,50.91Z"/>
</svg>
